<?xml version="1.0" encoding="UTF-8" standalone="no"?><svg xmlns="http://www.w3.org/2000/svg" xmlns:xlink="http://www.w3.org/1999/xlink" fill="#151211" height="500" preserveAspectRatio="xMidYMid meet" version="1" viewBox="0.0 0.0 500.0 500.0" width="500" zoomAndPan="magnify"><g id="change1_1"><path d="M 450.355469 393.070312 C 450.355469 424.578125 424.578125 450.355469 393.070312 450.355469 L 106.929688 450.355469 C 75.421875 450.355469 49.644531 424.578125 49.644531 393.070312 L 49.644531 106.929688 C 49.644531 75.421875 75.421875 49.644531 106.929688 49.644531 L 393.070312 49.644531 C 424.578125 49.644531 450.355469 75.421875 450.355469 106.929688 Z M 393.070312 0 L 106.929688 0 C 47.96875 0 0 47.96875 0 106.929688 L 0 393.070312 C 0 452.03125 47.96875 500 106.929688 500 L 393.070312 500 C 452.03125 500 500 452.03125 500 393.070312 L 500 106.929688 C 500 47.96875 452.03125 0 393.070312 0" fill="inherit"/><path d="M 250 334.554688 C 203.300781 334.554688 165.445312 296.699219 165.445312 250 C 165.445312 203.300781 203.300781 165.445312 250 165.445312 C 296.699219 165.445312 334.554688 203.300781 334.554688 250 C 334.554688 296.699219 296.699219 334.554688 250 334.554688 Z M 250 117.246094 C 176.800781 117.246094 117.246094 176.800781 117.246094 250 C 117.246094 323.199219 176.800781 382.753906 250 382.753906 C 323.199219 382.753906 382.753906 323.199219 382.753906 250 C 382.753906 176.800781 323.199219 117.246094 250 117.246094" fill="inherit"/><path d="M 400.660156 92.777344 L 371.394531 92.777344 C 365.796875 92.777344 361.214844 97.355469 361.214844 102.953125 L 361.214844 132.222656 C 361.214844 137.820312 365.796875 142.398438 371.394531 142.398438 L 400.660156 142.398438 C 406.257812 142.398438 410.839844 137.820312 410.839844 132.222656 L 410.839844 102.953125 C 410.839844 97.355469 406.257812 92.777344 400.660156 92.777344" fill="inherit"/></g></svg>